<svg preserveAspectRatio="none" width="100%" height="100%" overflow="visible" style="display: block;" viewBox="0 0 27 27" fill="none" xmlns="http://www.w3.org/2000/svg">
<g id="Octicons-mark-github 1" clip-path="url(#clip0_1078_18)">
<path id="Vector" fill-rule="evenodd" clip-rule="evenodd" d="M13.3333 0C5.96667 0 0 5.96667 0 13.3333C0 19.2333 3.81667 24.2167 9.11667 25.9833C9.78333 26.1 10.0333 25.7 10.0333 25.35C10.0333 25.0333 10.0167 23.9833 10.0167 22.8667C6.66667 23.4833 5.8 22.05 5.53333 21.3C5.38333 20.9167 4.73333 19.7333 4.16667 19.4167C3.7 19.1667 3.03333 18.55 4.15 18.5333C5.2 18.5167 5.95 19.5 6.2 19.9C7.4 21.9167 9.31667 21.35 10.0833 21C10.2 20.1333 10.55 19.55 10.9333 19.2167C7.96667 18.8833 4.86667 17.7333 4.86667 12.6333C4.86667 11.1833 5.38333 9.98333 6.23333 9.05C6.1 8.71667 5.63333 7.35 6.36667 5.51667C6.36667 5.51667 7.48333 5.16667 10.0333 6.88333C11.1 6.58333 12.2333 6.43333 13.3667 6.43333C14.5 6.43333 15.6333 6.58333 16.7 6.88333C19.25 5.15 20.3667 5.51667 20.3667 5.51667C21.1 7.35 20.6333 8.71667 20.5 9.05C21.35 9.98333 21.8667 11.1667 21.8667 12.6333C21.8667 17.75 18.75 18.8833 15.7833 19.2167C16.2667 19.6333 16.6833 20.4333 16.6833 21.6833C16.6833 23.4667 16.6667 24.9 16.6667 25.35C16.6667 25.7 16.9167 26.1167 17.5833 25.9833C22.85 24.2167 26.6667 19.2167 26.6667 13.3333C26.6667 5.96667 20.7 0 13.3333 0Z" fill="var(--fill-0, #38220F)"/>
</g>
<defs>
<clipPath id="clip0_1078_18">
<rect width="26.6667" height="26.6667" fill="white"/>
</clipPath>
</defs>
</svg>
