<svg preserveAspectRatio="none" width="100%" height="100%" overflow="visible" style="display: block;" viewBox="0 0 32 32" fill="none" xmlns="http://www.w3.org/2000/svg">
<g id="Frame 11">
<g id="Vector">
<path d="M14.8749 23.9995L9.81846 8.00022L9.81757 8.00051L8.22637 8.00022C7.53012 8.00022 6.91378 8.45194 6.70378 9.1166L1.99996 23.9995H3.42364C4.21939 23.9995 4.92366 23.4833 5.16366 22.7235L8.43726 12.3652L11.7112 22.7238C11.9512 23.4836 12.6554 23.9998 13.4512 23.9998L14.8749 23.9995Z" fill="var(--fill-0, #38220F)"/>
<path d="M16.9493 8.0003L22.0057 23.9996L22.0066 23.9993L23.5978 23.9996C24.2941 23.9996 24.9104 23.5479 25.1204 22.8832L29.8242 8.0003H28.4006C27.6048 8.0003 26.9005 8.51656 26.6605 9.27638L23.3866 19.6343L20.113 9.27608C19.873 8.51626 19.1688 8 18.373 8L16.9493 8.0003Z" fill="var(--fill-0, #38220F)"/>
<path d="M19.8239 23.9997L15.1697 9.27615C14.9296 8.51663 14.2254 8.00037 13.4296 8.00037H12.0285L13.3863 12.3657L16.6602 22.7239C16.9002 23.4837 17.6044 24 18.4002 24L19.8239 23.9997Z" fill="var(--fill-0, #38220F)"/>
</g>
</g>
</svg>
